<svg data-v-fde0c5aa="" xmlns="http://www.w3.org/2000/svg" viewBox="0 0 300 300" class="iconLeftSlogan"><!----><defs data-v-fde0c5aa=""><!----></defs><rect data-v-fde0c5aa="" fill="transparent" x="0" y="0" width="300px" height="300px" class="logo-background-square"></rect><defs data-v-fde0c5aa=""><!----></defs><g data-v-fde0c5aa="" id="3b959bf9-533d-42c6-aa2f-fac888100f9c" fill="#000000" transform="matrix(1.9093927629742231,0,0,1.9093927629742231,98.52264938277122,118.11835886347785)"><path d="M6.71 5.25L2.66 5.25C1.78 5.25 1.37 5.32 0.88 5.74C1.12 6.37 1.16 7.01 1.16 7.56L1.16 14.24C1.16 14.85 1.64 15.23 2.28 15.23C2.83 15.23 3.23 14.95 3.40 14.80C3.15 14.18 3.12 13.51 3.12 12.98L3.12 10.51L6.08 10.51C6.13 10.22 6.17 9.83 6.08 9.46L3.11 9.46L3.11 6.17C4.33 6.22 5.53 6.51 6.50 6.96C7.01 6.72 7.24 5.25 6.71 5.25ZM9.16 6.96C9.76 6.96 10.23 6.48 10.23 5.88C10.23 5.26 9.76 4.79 9.16 4.79C8.54 4.79 8.06 5.26 8.06 5.88C8.06 6.48 8.54 6.96 9.16 6.96ZM10.18 12.98L10.16 8.57C10.16 7.94 9.70 7.57 9.07 7.57C8.54 7.57 8.16 7.85 7.99 7.99C8.23 8.62 8.27 9.30 8.27 9.83L8.27 14.24C8.27 14.85 8.75 15.23 9.35 15.23C9.90 15.23 10.29 14.95 10.46 14.80C10.21 14.18 10.18 13.51 10.18 12.98ZM14.29 18.16C16.44 18.16 18.02 17.19 18.02 14.41L18.02 8.51C17.33 7.94 16.23 7.59 15.01 7.59C12.49 7.59 11.56 9.24 11.56 11.54C11.56 14.07 12.59 14.99 14.06 14.99C15.11 14.99 15.81 14.50 16.13 13.62C16.11 13.96 16.11 14.42 16.11 14.67C16.11 16.39 15.53 17.58 14.35 17.58C13.66 17.58 13.40 17.18 13.40 16.66C13.40 16.30 13.54 15.95 13.82 15.69C13.65 15.48 13.34 15.37 12.94 15.37C12.17 15.37 11.62 15.83 11.62 16.55C11.62 17.71 12.88 18.16 14.29 18.16ZM14.64 14.11C13.85 14.11 13.61 13.50 13.61 11.73C13.61 9.52 13.90 8.23 15.12 8.23C15.50 8.23 15.88 8.34 16.11 8.53L16.10 11.54C16.09 13.16 15.60 14.11 14.64 14.11ZM25.90 12.98L25.90 10.39C25.90 8.53 25.19 7.59 23.65 7.59C22.60 7.59 21.91 8.09 21.53 8.99L21.53 8.61C21.55 7.21 21.59 6.10 21.87 5.18C21.69 5.04 21.15 4.72 20.55 4.77C20.03 4.82 19.64 5.12 19.66 5.75L19.66 14.14C19.66 14.81 20.15 15.23 20.78 15.23C21.31 15.23 21.70 14.97 21.87 14.81C21.55 14.06 21.55 13.55 21.55 11.73C21.55 9.56 22.13 8.47 22.99 8.47C23.80 8.47 23.98 9.28 23.98 10.70L23.98 14.24C23.98 14.85 24.46 15.23 25.09 15.23C25.58 15.23 25.93 15.02 26.18 14.80C25.94 14.18 25.90 13.40 25.90 12.98ZM29.78 7.80C29.82 7.29 29.89 6.86 30.03 6.34C29.88 6.20 29.50 5.92 28.94 5.92C28.31 5.92 27.83 6.29 27.83 6.90L27.83 7.80L27.30 7.80C27.03 7.80 26.81 7.94 26.80 8.25L26.78 8.71C26.96 8.68 27.44 8.65 27.62 8.65L27.83 8.65L27.83 13.16C27.83 14.39 28.45 15.16 29.58 15.16C30.53 15.16 31.12 14.74 31.12 14.15C31.12 13.99 31.07 13.75 30.93 13.55C30.86 13.69 30.56 13.73 30.38 13.73C29.96 13.73 29.75 13.48 29.75 12.99L29.75 9.06L29.75 8.65L30.95 8.65C31.22 8.65 31.43 8.50 31.44 8.19L31.46 7.74C31.33 7.77 30.07 7.80 29.78 7.80ZM37.31 9.74C38.43 9.45 39.10 8.55 39.10 7.41C39.10 5.71 37.65 5.05 35.22 5.05C34.02 5.05 33.18 5.21 32.59 5.49C32.83 6.12 32.87 6.86 32.87 7.31L32.87 14.03C32.87 14.66 33.35 15.02 33.99 15.02L35.57 15.02C38.11 15.02 39.58 14.10 39.58 12.24C39.58 10.78 38.64 9.93 37.31 9.74ZM35.25 5.73C36.60 5.73 37.03 6.48 37.03 7.57C37.03 8.71 36.60 9.52 35.48 9.49L34.83 9.49L34.83 5.73ZM35.49 14.35L34.83 14.35L34.83 10.16L35.52 10.16C36.62 10.16 37.45 10.58 37.45 12.28C37.45 13.44 36.93 14.35 35.49 14.35ZM47.70 13.55C47.60 13.69 47.42 13.73 47.32 13.73C47.01 13.73 46.86 13.48 46.86 12.99L46.86 10.63C46.86 8.44 45.92 7.59 43.83 7.59C42 7.59 40.82 8.20 40.82 9.32C40.82 10.05 41.34 10.63 42.25 10.63C42.66 10.63 43.05 10.51 43.27 10.29C42.88 10.07 42.78 9.63 42.78 9.25C42.78 8.51 43.18 8.22 43.72 8.22C44.60 8.22 44.88 8.99 44.88 10.50L44.88 10.85C44.35 10.88 43.68 10.93 42.94 11.14C41.78 11.48 40.49 12.17 40.49 13.51C40.49 14.59 41.27 15.16 42.34 15.16C43.62 15.16 44.53 14.38 45.02 13.33C45.14 14.69 45.70 15.16 46.55 15.16C47.38 15.16 47.88 14.70 47.88 14.15C47.88 13.99 47.82 13.75 47.70 13.55ZM43.34 13.92C42.81 13.97 42.60 13.51 42.60 13.03C42.60 12.47 42.92 12.03 43.37 11.77C43.81 11.52 44.39 11.47 44.94 11.47C44.94 12.84 44.06 13.85 43.34 13.92ZM55.85 13.57C55.76 13.69 55.58 13.72 55.48 13.72C55.17 13.72 55.01 13.48 55.01 12.99L55.02 5.75C55.02 5.12 54.53 4.76 53.91 4.76C53.37 4.76 52.98 5.04 52.81 5.18C53.09 6.13 53.13 7.20 53.13 7.84L53.13 8.41C52.86 7.88 52.29 7.59 51.44 7.59C49.52 7.59 48.44 9.06 48.44 11.66C48.44 13.73 49.15 15.22 50.93 15.22C52.07 15.22 52.85 14.60 53.27 13.33C53.40 14.46 53.87 15.15 54.78 15.15C55.48 15.15 56.03 14.74 56.03 14.17C56.03 14 55.97 13.76 55.85 13.57ZM51.52 14.18C50.75 14.18 50.50 13.34 50.50 11.62C50.50 9.69 50.88 8.54 51.93 8.54C52.93 8.54 53.09 9.48 53.09 10.49C53.09 12.32 52.63 14.18 51.52 14.18ZM63.59 5.25L56.73 5.25C56.20 5.25 56.42 6.72 56.94 6.96C57.54 6.64 58.37 6.24 59.18 6.05L59.18 14.24C59.18 14.85 59.65 15.23 60.30 15.23C60.84 15.23 61.25 14.95 61.42 14.80C61.17 14.18 61.14 13.51 61.14 12.98L61.12 6.03C61.94 6.24 62.78 6.64 63.36 6.96C63.90 6.72 64.12 5.25 63.59 5.25ZM69.17 12.98C68.87 13.57 68.21 14.03 67.17 14.03C66.01 14.03 65.28 13.45 65.14 11.80C65.63 11.86 66.08 11.86 66.51 11.86C68.29 11.86 69.52 11.10 69.52 9.72C69.52 8.30 68.25 7.59 66.64 7.59C64.32 7.59 63.06 9.03 63.06 11.38C63.06 13.83 64.46 15.22 66.63 15.22C67.96 15.22 68.94 14.70 69.30 13.79C69.51 13.27 69.37 13.06 69.17 12.98ZM66.57 8.23C67.02 8.23 67.45 8.46 67.45 9.39C67.45 11.05 66.21 11.17 65.38 11.16C65.28 11.16 65.20 11.16 65.11 11.14L65.11 11.13C65.11 9.32 65.65 8.23 66.57 8.23ZM73.99 15.22C75.35 15.22 76.37 14.63 76.64 13.64C76.76 13.10 76.65 12.85 76.45 12.77C76.26 13.48 75.57 14.03 74.58 14.03C73.25 14.03 72.49 13.15 72.49 11.07C72.49 9.27 73.01 8.23 73.88 8.23C74.37 8.23 74.70 8.48 74.70 9.21C74.70 9.70 74.58 10.04 74.31 10.29C74.52 10.51 74.93 10.63 75.31 10.63C76.08 10.63 76.62 10.15 76.62 9.38C76.62 8.41 75.80 7.59 74.03 7.59C71.71 7.59 70.43 9.03 70.43 11.38C70.43 13.83 71.71 15.22 73.99 15.22ZM84.29 12.98L84.29 10.39C84.29 8.53 83.58 7.59 82.04 7.59C80.99 7.59 80.30 8.09 79.93 8.99L79.93 8.61C79.94 7.21 79.98 6.10 80.26 5.18C80.08 5.04 79.55 4.72 78.95 4.77C78.43 4.82 78.04 5.12 78.05 5.75L78.05 14.14C78.05 14.81 78.54 15.23 79.17 15.23C79.70 15.23 80.09 14.97 80.26 14.81C79.94 14.06 79.94 13.55 79.94 11.73C79.94 9.56 80.53 8.47 81.38 8.47C82.19 8.47 82.38 9.28 82.38 10.70L82.38 14.24C82.38 14.85 82.85 15.23 83.48 15.23C83.97 15.23 84.32 15.02 84.57 14.80C84.34 14.18 84.29 13.40 84.29 12.98Z"></path></g><defs data-v-fde0c5aa=""><linearGradient data-v-fde0c5aa="" gradientTransform="rotate(25)" id="efaac17a-a938-473a-bfed-f8311720a5dd" x1="0%" y1="0%" x2="100%" y2="0%"><stop data-v-fde0c5aa="" offset="0%" stop-color="#000A68" stop-opacity="1"></stop><stop data-v-fde0c5aa="" offset="100%" stop-color="#00C4EE" stop-opacity="1"></stop></linearGradient></defs><g data-v-fde0c5aa="" id="c79148f5-7861-4a77-9d8e-459fe7657499" stroke="none" fill="url(#efaac17a-a938-473a-bfed-f8311720a5dd)" transform="matrix(0.5990217408250578,0,0,0.5990217408250578,33.65036931874573,120.04891181620381)"><path d="M77.8 22.2L50 10.6 22.2 22.2 10.6 50l11.5 27.8L50 89.4l27.8-11.5L89.4 50 77.8 22.2zm9.1 26.3l-12.5-3.4v-.6c0-2-1.1-3.8-2.7-4.8L77.3 25l9.6 23.5zM45.8 60.3c-.3-2.3-1.6-4.2-3.5-5.3l5-12.1c.9.3 1.8.4 2.7.4s1.9-.1 2.7-.4l6.2 15c-.8.6-1.4 1.4-1.6 2.4H45.8zm15.4-3.1c-.2 0-.4 0-.7.1l-6.2-15c1.3-.7 2.3-1.7 3.1-2.9l6.2 3.4c-.2.6-.3 1.2-.3 1.8 0 1.9 1 3.6 2.4 4.6L62 57.3c-.3-.1-.5-.1-.8-.1zM38.7 54c-.8 0-1.6.1-2.3.4l-5.6-11.6c.9-.7 1.5-1.8 1.5-3.1v-.1l9.3-2.3c.7 2.1 2.2 3.9 4.2 4.9l-5 12c-.7-.1-1.4-.2-2.1-.2zm30.1-14.9c-1.8 0-3.3.8-4.3 2.1l-6.2-3.4c.5-1.1.7-2.3.7-3.5 0-1-.2-1.9-.5-2.8l17-7.1L70 39.2c-.4-.1-.8-.1-1.2-.1zm-27.7-3.5l-9.3 2.3c-.7-1.3-2-2.2-3.6-2.2h-.3l-3.6-11.3 17.1 7.1c-.3.9-.5 1.8-.5 2.8.1.5.1.9.2 1.3zm-15.7 6.9c.7.7 1.7 1.2 2.8 1.2.3 0 .6 0 .9-.1l5.6 11.6c-1 .6-1.8 1.5-2.4 2.5L13.6 50l11.8-7.5zM63.6 58l3.8-8.1c.5.1 1 .2 1.5.2 2.2 0 4.2-1.3 5-3.2L86 50.1 64.5 59c-.2-.4-.6-.7-.9-1zm13.1-34zm-18.9 5.9c-1.4-2.5-4-4.2-6.9-4.5V12.9l24 9.9-17.1 7.1zm-8.7-17v12.5c-3 .3-5.5 2-6.9 4.5l-17.1-7.1 24-9.9zM22.8 25.2l3.5 11c-1.2.7-2 2-2 3.4 0 .5.1.9.3 1.4l-11.2 7.1 9.4-22.9zM12.7 49.5zm.5 2.1l18.5 7.7c-.2.6-.3 1.2-.3 1.9 0 1.7.6 3.2 1.6 4.5l-9.9 10-9.9-24.1zm10.3 24.9zm.9.4l9.9-10c1.2.9 2.7 1.5 4.4 1.5.7 0 1.4-.1 2-.3l7.7 18.7-24-9.9zm17.9-9.5c1.9-1.1 3.3-3.1 3.5-5.4h11.5c.2 1 .8 1.9 1.7 2.4l-9 21.7-7.7-18.7zm18.3-2.3c.2 0 .4.1.6.1.8 0 1.5-.2 2.1-.6l12.3 12.3-24 9.9 9-21.7zm16.3 10.5L64.5 63.3c.4-.6.6-1.3.6-2.1 0-.2 0-.4-.1-.6l21.7-9-9.8 24zm10.4-26.1z"></path></g><defs data-v-fde0c5aa=""><!----></defs><g data-v-fde0c5aa="" id="a0a4e07d-7c07-492b-a799-33d3115b11f6" fill="#000000" transform="matrix(0.25231250798625493,0,0,0.25231250798625493,100.10703624573269,162.10159487345095)"><path d="M0.39 3.64L0.38 3.08L7.56 3.08L7.56 3.08Q7.57 4.14 7.63 5.28L7.63 5.28L7.08 5.30L7.08 5.30Q7.07 4.66 7.01 4.25L7.01 4.25L7.01 4.25Q6.97 3.89 6.92 3.80L6.92 3.80L6.92 3.80Q6.86 3.71 6.75 3.69L6.75 3.69L6.75 3.69Q6.65 3.68 6.06 3.68L6.06 3.68L3.68 3.68L3.68 3.68Q3.14 3.68 2.99 3.77L2.99 3.77L2.99 3.77Q2.87 3.86 2.87 4.33L2.87 4.33L2.87 6.28L2.87 6.28Q2.87 6.69 2.93 6.76L2.93 6.76L2.93 6.76Q2.99 6.84 3.33 6.84L3.33 6.84L5.45 6.84L5.45 6.84Q5.81 6.84 5.89 6.74L5.89 6.74L5.89 6.74Q5.97 6.64 5.97 6.17L5.97 6.17L5.97 5.63L6.49 5.63L6.49 8.97L5.97 8.97L5.97 8.26L5.97 8.26Q5.97 7.68 5.89 7.57L5.89 7.57L5.89 7.57Q5.81 7.46 5.48 7.46L5.48 7.46L3.38 7.46L3.38 7.46Q3.04 7.46 2.96 7.54L2.96 7.54L2.96 7.54Q2.87 7.63 2.87 7.89L2.87 7.89L2.87 11.20L2.87 11.20Q2.87 11.60 2.94 11.73L2.94 11.73L2.94 11.73Q3.02 11.87 3.29 11.87L3.29 11.87L4.22 11.87L4.22 12.41L0.63 12.41L0.63 11.87L1.04 11.87L1.04 11.87Q1.54 11.87 1.64 11.79L1.64 11.79L1.64 11.79Q1.74 11.70 1.74 11.33L1.74 11.33L1.74 4.24L1.74 4.24Q1.74 3.79 1.57 3.71L1.57 3.71L1.57 3.71Q1.43 3.64 0.39 3.64L0.39 3.64ZM16.26 3.64L15.67 3.64L15.69 3.08L19.20 3.08L19.20 3.64L18.97 3.64L18.97 3.64Q18.42 3.64 18.25 3.73L18.25 3.73L18.25 3.73Q18.12 3.81 18.12 4.28L18.12 4.28L18.12 11.22L18.12 11.22Q18.12 11.68 18.22 11.77L18.22 11.77L18.22 11.77Q18.33 11.87 18.87 11.87L18.87 11.87L19.41 11.87L19.43 12.41L15.85 12.41L15.83 11.87L16.19 11.87L16.19 11.87Q16.75 11.87 16.87 11.77L16.87 11.77L16.87 11.77Q16.98 11.67 16.98 11.25L16.98 11.25L16.98 4.14L16.98 4.14Q16.98 3.77 16.88 3.71L16.88 3.71L16.88 3.71Q16.77 3.64 16.26 3.64L16.26 3.64ZM27.55 8.24L27.55 8.24L27.55 8.24Q27.55 6.92 28.16 5.72L28.16 5.72L28.16 5.72Q28.78 4.52 30.01 3.72L30.01 3.72L30.01 3.72Q31.25 2.92 32.87 2.92L32.87 2.92L32.87 2.92Q34.14 2.92 35.72 3.57L35.72 3.57L35.72 2.86L36.29 2.86L36.38 5.92L35.83 5.93L35.74 4.48L35.74 4.48Q35.66 4.41 35.38 4.24L35.38 4.24L35.38 4.24Q35.13 4.07 34.38 3.83L34.38 3.83L34.38 3.83Q33.65 3.60 32.75 3.60L32.75 3.60L32.75 3.60Q31.77 3.60 31.00 3.93L31.00 3.93L31.00 3.93Q30.24 4.27 29.77 4.83L29.77 4.83L29.77 4.83Q29.31 5.39 29.06 6.08L29.06 6.08L29.06 6.08Q28.81 6.78 28.81 7.57L28.81 7.57L28.81 7.57Q28.81 9.33 29.93 10.69L29.93 10.69L29.93 10.69Q31.05 12.05 32.91 12.05L32.91 12.05L32.91 12.05Q33.61 12.05 34.24 11.85L34.24 11.85L34.24 11.85Q34.87 11.66 35.09 11.48L35.09 11.48L35.33 11.28L35.33 8.78L33.67 8.78L33.65 8.23L37.52 8.23L37.53 8.78L36.46 8.78L36.46 11.64L35.68 11.98L35.68 11.98Q34.98 12.30 34.75 12.39L34.75 12.39L34.75 12.39Q34.50 12.48 33.86 12.61L33.86 12.61L33.86 12.61Q33.25 12.74 32.64 12.74L32.64 12.74L32.64 12.74Q31.34 12.74 30.37 12.37L30.37 12.37L30.37 12.37Q29.38 12.00 28.77 11.36L28.77 11.36L28.77 11.36Q28.18 10.76 27.86 9.94L27.86 9.94L27.86 9.94Q27.55 9.15 27.55 8.24ZM45.64 3.64L45.27 3.64L45.27 3.08L48.75 3.08L48.75 3.64L48.39 3.64L48.39 3.64Q47.89 3.64 47.74 3.75L47.74 3.75L47.74 3.75Q47.60 3.84 47.59 4.25L47.59 4.25L47.59 6.91L52.14 6.91L52.14 4.14L52.14 4.14Q52.14 3.77 52.05 3.71L52.05 3.71L52.05 3.71Q51.94 3.64 51.41 3.64L51.41 3.64L50.83 3.64L50.81 3.08L54.37 3.08L54.37 3.64L53.98 3.64L53.98 3.64Q53.50 3.64 53.39 3.74L53.39 3.74L53.39 3.74Q53.28 3.83 53.28 4.22L53.28 4.22L53.28 11.29L53.28 11.29Q53.28 11.67 53.42 11.77L53.42 11.77L53.42 11.77Q53.57 11.87 54.12 11.87L54.12 11.87L54.59 11.87L54.58 12.41L51.09 12.41L51.08 11.87L51.49 11.87L51.49 11.87Q51.95 11.87 52.05 11.77L52.05 11.77L52.05 11.77Q52.14 11.67 52.14 11.25L52.14 11.25L52.14 7.58L47.59 7.58L47.59 11.25L47.59 11.25Q47.59 11.67 47.75 11.77L47.75 11.77L47.75 11.77Q47.90 11.87 48.60 11.87L48.60 11.87L49.01 11.87L48.98 12.41L45.40 12.41L45.38 11.87L45.75 11.87L45.75 11.87Q46.29 11.87 46.36 11.80L46.36 11.80L46.36 11.80Q46.46 11.70 46.46 11.25L46.46 11.25L46.46 4.09L46.46 4.09Q46.46 3.76 46.32 3.71L46.32 3.71L46.32 3.71Q46.15 3.64 45.64 3.64L45.64 3.64ZM62.61 5.35L62.11 5.33L62.11 5.33Q62.23 4.17 62.32 3.08L62.32 3.08L70.40 3.08L70.40 3.08Q70.31 4.13 70.29 4.53L70.29 4.53L70.29 4.53Q70.25 5.26 70.23 5.32L70.23 5.32L69.73 5.30L69.73 5.30Q69.81 4.34 69.81 4.16L69.81 4.16L69.81 4.16Q69.81 3.88 69.67 3.79L69.67 3.79L69.67 3.79Q69.49 3.69 69.09 3.69L69.09 3.69L67.48 3.69L67.48 3.69Q66.98 3.69 66.86 3.79L66.86 3.79L66.86 3.79Q66.76 3.87 66.75 4.36L66.75 4.36L66.75 11.22L66.75 11.22Q66.75 11.66 66.90 11.76L66.90 11.76L66.90 11.76Q67.05 11.87 67.57 11.87L67.57 11.87L68.13 11.87L68.14 12.41L64.45 12.40L64.45 11.87L64.67 11.87L64.67 11.87Q65.34 11.87 65.48 11.79L65.48 11.79L65.48 11.79Q65.63 11.70 65.63 11.28L65.63 11.28L65.63 4.48L65.63 4.48Q65.63 3.92 65.53 3.80L65.53 3.80L65.53 3.80Q65.43 3.69 65.00 3.69L65.00 3.69L63.53 3.69L63.53 3.69Q63.35 3.69 63.28 3.71L63.28 3.71L63.28 3.71Q63.21 3.72 63.10 3.72L63.10 3.72L63.10 3.72Q63.08 3.72 62.96 3.79L62.96 3.79L62.96 3.79Q62.88 3.84 62.85 3.86L62.85 3.86L62.85 3.86Q62.82 3.88 62.78 3.99L62.78 3.99L62.78 3.99Q62.75 4.05 62.73 4.14L62.73 4.14L62.73 4.14Q62.70 4.21 62.68 4.36L62.68 4.36L62.68 4.36Q62.65 4.59 62.65 4.61L62.65 4.61L62.65 4.61Q62.65 4.80 62.64 4.95L62.64 4.95L62.64 4.95Q62.64 5.02 62.63 5.15L62.63 5.15L62.63 5.15Q62.62 5.29 62.61 5.35L62.61 5.35ZM78.72 3.64L78.13 3.64L78.15 3.08L81.66 3.08L81.66 3.64L81.43 3.64L81.43 3.64Q80.88 3.64 80.71 3.73L80.71 3.73L80.71 3.73Q80.58 3.81 80.58 4.28L80.58 4.28L80.58 11.22L80.58 11.22Q80.58 11.68 80.68 11.77L80.68 11.77L80.68 11.77Q80.79 11.87 81.33 11.87L81.33 11.87L81.87 11.87L81.89 12.41L78.31 12.41L78.29 11.87L78.65 11.87L78.65 11.87Q79.21 11.87 79.33 11.77L79.33 11.77L79.33 11.77Q79.44 11.67 79.44 11.25L79.44 11.25L79.44 4.14L79.44 4.14Q79.44 3.77 79.34 3.71L79.34 3.71L79.34 3.71Q79.23 3.64 78.72 3.64L78.72 3.64ZM89.64 3.64L89.63 3.08L91.80 3.08L97.54 10.48L97.54 4.14L97.54 4.14Q97.54 3.81 97.38 3.72L97.38 3.72L97.38 3.72Q97.23 3.64 96.77 3.64L96.77 3.64L96.28 3.64L96.30 3.08L99.29 3.08L99.29 3.64L98.96 3.64L98.96 3.64Q98.50 3.64 98.35 3.75L98.35 3.75L98.35 3.75Q98.20 3.86 98.20 4.25L98.20 4.25L98.20 12.32L98.20 12.47L98.20 12.47Q98.20 12.52 98.18 12.57L98.18 12.57L98.18 12.57Q98.17 12.61 98.14 12.64L98.14 12.64L98.14 12.64Q98.12 12.65 98.07 12.65L98.07 12.65L97.88 12.65L97.82 12.65L97.79 12.65L97.76 12.64L97.76 12.64Q97.73 12.64 97.72 12.63L97.72 12.63L97.72 12.63Q97.71 12.61 97.71 12.60L97.71 12.60L97.71 12.60Q97.71 12.58 97.69 12.57L97.69 12.57L97.69 12.57Q97.67 12.54 97.64 12.50L97.64 12.50L97.64 12.50Q97.62 12.48 97.60 12.45L97.60 12.45L97.60 12.45Q97.58 12.41 97.57 12.40L97.57 12.40L91.46 4.56L91.53 11.22L91.53 11.22Q91.53 11.67 91.70 11.77L91.70 11.77L91.70 11.77Q91.85 11.87 92.57 11.87L92.57 11.87L92.80 11.87L92.80 12.41L89.87 12.41L89.87 11.87L90.29 11.87L90.29 11.87Q90.67 11.87 90.77 11.76L90.77 11.76L90.77 11.76Q90.87 11.66 90.88 11.25L90.88 11.25L90.88 3.80L90.73 3.64L89.64 3.64ZM107.41 8.24L107.41 8.24L107.41 8.24Q107.41 6.92 108.02 5.72L108.02 5.72L108.02 5.72Q108.64 4.52 109.87 3.72L109.87 3.72L109.87 3.72Q111.10 2.92 112.72 2.92L112.72 2.92L112.72 2.92Q114.00 2.92 115.58 3.57L115.58 3.57L115.58 2.86L116.14 2.86L116.24 5.92L115.69 5.93L115.60 4.48L115.60 4.48Q115.51 4.41 115.24 4.24L115.24 4.24L115.24 4.24Q114.99 4.07 114.24 3.83L114.24 3.83L114.24 3.83Q113.51 3.60 112.61 3.60L112.61 3.60L112.61 3.60Q111.63 3.60 110.86 3.93L110.86 3.93L110.86 3.93Q110.09 4.27 109.63 4.83L109.63 4.83L109.63 4.83Q109.16 5.39 108.92 6.08L108.92 6.08L108.92 6.08Q108.66 6.78 108.66 7.57L108.66 7.57L108.66 7.57Q108.66 9.33 109.79 10.69L109.79 10.69L109.79 10.69Q110.91 12.05 112.77 12.05L112.77 12.05L112.77 12.05Q113.46 12.05 114.10 11.85L114.10 11.85L114.10 11.85Q114.73 11.66 114.95 11.48L114.95 11.48L115.19 11.28L115.19 8.78L113.52 8.78L113.51 8.23L117.37 8.23L117.39 8.78L116.32 8.78L116.32 11.64L115.53 11.98L115.53 11.98Q114.84 12.30 114.61 12.39L114.61 12.39L114.61 12.39Q114.36 12.48 113.72 12.61L113.72 12.61L113.72 12.61Q113.11 12.74 112.50 12.74L112.50 12.74L112.50 12.74Q111.20 12.74 110.23 12.37L110.23 12.37L110.23 12.37Q109.24 12.00 108.62 11.36L108.62 11.36L108.62 11.36Q108.04 10.76 107.71 9.94L107.71 9.94L107.71 9.94Q107.41 9.15 107.41 8.24ZM135.09 3.64L134.70 3.64L134.72 3.08L137.82 3.08L137.82 3.08Q139.56 3.08 140.34 3.75L140.34 3.75L140.34 3.75Q141.11 4.42 141.11 5.37L141.11 5.37L141.11 5.37Q141.11 6.08 140.57 6.60L140.57 6.60L140.57 6.60Q140.01 7.14 139.32 7.35L139.32 7.35L139.32 7.35Q140.40 7.57 140.93 8.34L140.93 8.34L140.93 8.34Q141.45 9.08 141.44 10.01L141.44 10.01L141.44 10.01Q141.44 11.01 140.81 11.59L140.81 11.59L140.81 11.59Q140.21 12.13 139.26 12.28L139.26 12.28L139.26 12.28Q138.34 12.41 136.79 12.41L136.79 12.41L134.81 12.41L134.81 11.87L135.23 11.87L135.23 11.87Q135.59 11.87 135.70 11.80L135.70 11.80L135.70 11.80Q135.82 11.73 135.82 11.46L135.82 11.46L135.82 4.14L135.82 4.14Q135.82 3.81 135.67 3.72L135.67 3.72L135.67 3.72Q135.53 3.64 135.09 3.64L135.09 3.64ZM136.92 7.59L136.92 7.59L136.95 11.35L136.95 11.35Q136.95 11.63 137.12 11.71L137.12 11.71L137.12 11.71Q137.29 11.80 137.86 11.80L137.86 11.80L137.86 11.80Q140.12 11.80 140.12 9.91L140.12 9.91L140.12 9.91Q140.12 9.22 139.79 8.73L139.79 8.73L139.79 8.73Q139.48 8.24 138.95 8.02L138.95 8.02L138.95 8.02Q138.37 7.75 137.93 7.68L137.93 7.68L137.93 7.68Q137.45 7.59 136.92 7.59ZM136.95 4.01L136.95 7.19L138.33 7.19L138.33 7.19Q138.98 7.19 139.40 6.66L139.40 6.66L139.40 6.66Q139.80 6.15 139.81 5.54L139.81 5.54L139.81 5.54Q139.81 4.85 139.22 4.27L139.22 4.27L139.22 4.27Q138.65 3.69 137.37 3.69L137.37 3.69L137.37 3.69Q136.95 3.69 136.95 4.01L136.95 4.01ZM149.50 12.41L149.49 11.87L149.66 11.87L149.66 11.87Q150.05 11.87 150.18 11.73L150.18 11.73L150.18 11.73Q150.30 11.57 150.64 10.83L150.64 10.83L151.55 8.82L152.12 7.53L152.12 7.53Q152.39 6.97 152.43 6.86L152.43 6.86L152.43 6.86Q152.50 6.70 152.55 6.60L152.55 6.60L152.55 6.60Q152.60 6.51 152.61 6.45L152.61 6.45L152.71 6.21L154.14 2.74L154.43 2.74L154.43 2.74Q155.29 4.98 157.47 10.25L157.47 10.25L157.47 10.25Q157.92 11.34 158.12 11.64L158.12 11.64L158.12 11.64Q158.25 11.87 158.69 11.87L158.69 11.87L158.90 11.87L158.89 12.41L155.70 12.41L155.71 11.87L156.13 11.87L156.13 11.87Q156.74 11.87 156.74 11.70L156.74 11.70L156.74 11.70Q156.74 11.63 156.60 11.27L156.60 11.27L155.57 8.72L152.32 8.72L151.21 11.18L151.21 11.18Q151.07 11.50 151.07 11.63L151.07 11.63L151.07 11.63Q151.07 11.79 151.17 11.83L151.17 11.83L151.17 11.83Q151.27 11.87 151.65 11.87L151.65 11.87L152.22 11.87L152.22 12.41L149.50 12.41ZM154 4.79L152.58 8.10L155.33 8.10L154 4.79ZM166.67 3.64L166.63 3.08L170.41 3.08L170.41 3.08Q171.73 3.08 172.60 3.19L172.60 3.19L172.60 3.19Q173.42 3.29 174.11 3.69L174.11 3.69L174.11 3.69Q175.06 4.27 175.57 5.24L175.57 5.24L175.57 5.24Q176.06 6.21 176.06 7.39L176.06 7.39L176.06 7.39Q176.06 8.05 175.92 8.65L175.92 8.65L175.92 8.65Q175.76 9.29 175.37 9.98L175.37 9.98L175.37 9.98Q174.94 10.73 174.38 11.21L174.38 11.21L174.38 11.21Q173.75 11.76 172.78 12.08L172.78 12.08L172.78 12.08Q171.77 12.41 170.50 12.41L170.50 12.41L166.89 12.41L166.87 11.87L167.25 11.87L167.25 11.87Q167.77 11.87 167.87 11.79L167.87 11.79L167.87 11.79Q167.98 11.70 167.98 11.25L167.98 11.25L167.98 4.14L167.98 4.14Q167.98 3.77 167.88 3.71L167.88 3.71L167.88 3.71Q167.77 3.64 167.26 3.64L167.26 3.64L166.67 3.64ZM169.11 4.39L169.11 11.22L169.11 11.22Q169.11 11.67 169.28 11.77L169.28 11.77L169.28 11.77Q169.44 11.87 170.30 11.87L170.30 11.87L170.30 11.87Q171.36 11.87 172.15 11.61L172.15 11.61L172.15 11.61Q173.00 11.35 173.44 10.99L173.44 10.99L173.44 10.99Q173.93 10.58 174.24 10.05L174.24 10.05L174.24 10.05Q174.54 9.52 174.67 8.96L174.67 8.96L174.67 8.96Q174.79 8.41 174.79 7.82L174.79 7.82L174.79 7.82Q174.79 7.03 174.53 6.34L174.53 6.34L174.53 6.34Q174.26 5.65 173.74 5.05L173.74 5.05L173.74 5.05Q173.20 4.46 172.29 4.09L172.29 4.09L172.29 4.09Q171.37 3.73 170.21 3.73L170.21 3.73L169.69 3.73L169.69 3.73Q169.33 3.73 169.22 3.85L169.22 3.85L169.22 3.85Q169.11 3.99 169.11 4.39L169.11 4.39ZM194.19 3.64L193.60 3.64L193.61 3.08L197.13 3.08L197.13 3.64L196.90 3.64L196.90 3.64Q196.35 3.64 196.18 3.73L196.18 3.73L196.18 3.73Q196.04 3.81 196.04 4.28L196.04 4.28L196.04 11.22L196.04 11.22Q196.04 11.68 196.15 11.77L196.15 11.77L196.15 11.77Q196.26 11.87 196.79 11.87L196.79 11.87L197.34 11.87L197.35 12.41L193.77 12.41L193.76 11.87L194.12 11.87L194.12 11.87Q194.68 11.87 194.79 11.77L194.79 11.77L194.79 11.77Q194.91 11.67 194.91 11.25L194.91 11.25L194.91 4.14L194.91 4.14Q194.91 3.77 194.80 3.71L194.80 3.71L194.80 3.71Q194.69 3.64 194.19 3.64L194.19 3.64ZM205.11 3.64L205.09 3.08L207.27 3.08L213.00 10.48L213.00 4.14L213.00 4.14Q213.00 3.81 212.85 3.72L212.85 3.72L212.85 3.72Q212.69 3.64 212.24 3.64L212.24 3.64L211.74 3.64L211.77 3.08L214.75 3.08L214.75 3.64L214.43 3.64L214.43 3.64Q213.96 3.64 213.81 3.75L213.81 3.75L213.81 3.75Q213.66 3.86 213.66 4.25L213.66 4.25L213.66 12.32L213.66 12.47L213.66 12.47Q213.66 12.52 213.65 12.57L213.65 12.57L213.65 12.57Q213.64 12.61 213.60 12.64L213.60 12.64L213.60 12.64Q213.59 12.65 213.53 12.65L213.53 12.65L213.34 12.65L213.28 12.65L213.25 12.65L213.23 12.64L213.23 12.64Q213.20 12.64 213.19 12.63L213.19 12.63L213.19 12.63Q213.17 12.61 213.17 12.60L213.17 12.60L213.17 12.60Q213.17 12.58 213.16 12.57L213.16 12.57L213.16 12.57Q213.13 12.54 213.10 12.50L213.10 12.50L213.10 12.50Q213.09 12.48 213.07 12.45L213.07 12.45L213.07 12.45Q213.05 12.41 213.04 12.40L213.04 12.40L206.93 4.56L207.00 11.22L207.00 11.22Q207.00 11.67 207.16 11.77L207.16 11.77L207.16 11.77Q207.32 11.87 208.03 11.87L208.03 11.87L208.27 11.87L208.27 12.41L205.33 12.41L205.33 11.87L205.75 11.87L205.75 11.87Q206.13 11.87 206.24 11.76L206.24 11.76L206.24 11.76Q206.34 11.66 206.34 11.25L206.34 11.25L206.34 3.80L206.20 3.64L205.11 3.64ZM232.34 5.35L231.84 5.33L231.84 5.33Q231.96 4.17 232.05 3.08L232.05 3.08L240.13 3.08L240.13 3.08Q240.04 4.13 240.02 4.53L240.02 4.53L240.02 4.53Q239.98 5.26 239.96 5.32L239.96 5.32L239.46 5.30L239.46 5.30Q239.54 4.34 239.54 4.16L239.54 4.16L239.54 4.16Q239.54 3.88 239.39 3.79L239.39 3.79L239.39 3.79Q239.22 3.69 238.82 3.69L238.82 3.69L237.21 3.69L237.21 3.69Q236.71 3.69 236.58 3.79L236.58 3.79L236.58 3.79Q236.49 3.87 236.48 4.36L236.48 4.36L236.48 11.22L236.48 11.22Q236.48 11.66 236.63 11.76L236.63 11.76L236.63 11.76Q236.78 11.87 237.30 11.87L237.30 11.87L237.86 11.87L237.87 12.41L234.18 12.40L234.18 11.87L234.40 11.87L234.40 11.87Q235.07 11.87 235.21 11.79L235.21 11.79L235.21 11.79Q235.35 11.70 235.35 11.28L235.35 11.28L235.35 4.48L235.35 4.48Q235.35 3.92 235.26 3.80L235.26 3.80L235.26 3.80Q235.16 3.69 234.73 3.69L234.73 3.69L233.26 3.69L233.26 3.69Q233.08 3.69 233.01 3.71L233.01 3.71L233.01 3.71Q232.94 3.72 232.83 3.72L232.83 3.72L232.83 3.72Q232.80 3.72 232.69 3.79L232.69 3.79L232.69 3.79Q232.61 3.84 232.58 3.86L232.58 3.86L232.58 3.86Q232.55 3.88 232.51 3.99L232.51 3.99L232.51 3.99Q232.48 4.05 232.46 4.14L232.46 4.14L232.46 4.14Q232.43 4.21 232.41 4.36L232.41 4.36L232.41 4.36Q232.38 4.59 232.38 4.61L232.38 4.61L232.38 4.61Q232.38 4.80 232.37 4.95L232.37 4.95L232.37 4.95Q232.37 5.02 232.36 5.15L232.36 5.15L232.36 5.15Q232.35 5.29 232.34 5.35L232.34 5.35ZM247.88 3.64L247.86 3.08L255.08 3.08L255.08 3.08Q255.09 4.14 255.14 5.28L255.14 5.28L254.60 5.30L254.60 5.30Q254.58 4.66 254.53 4.25L254.53 4.25L254.53 4.25Q254.49 3.89 254.43 3.80L254.43 3.80L254.43 3.80Q254.38 3.71 254.26 3.69L254.26 3.69L254.26 3.69Q254.17 3.68 253.58 3.68L253.58 3.68L251.20 3.68L251.20 3.68Q250.65 3.68 250.51 3.77L250.51 3.77L250.51 3.77Q250.39 3.86 250.39 4.33L250.39 4.33L250.39 6.28L250.39 6.28Q250.39 6.69 250.44 6.76L250.44 6.76L250.44 6.76Q250.51 6.84 250.85 6.84L250.85 6.84L252.96 6.84L252.96 6.84Q253.33 6.84 253.41 6.73L253.41 6.73L253.41 6.73Q253.49 6.63 253.50 6.14L253.50 6.14L253.50 5.61L254.01 5.63L254.01 8.97L253.50 8.97L253.50 8.24L253.50 8.24Q253.50 7.66 253.42 7.57L253.42 7.57L253.42 7.57Q253.34 7.46 252.99 7.46L252.99 7.46L250.89 7.46L250.89 7.46Q250.56 7.46 250.47 7.54L250.47 7.54L250.47 7.54Q250.39 7.63 250.39 7.89L250.39 7.89L250.39 11.20L250.39 11.20Q250.39 11.57 250.47 11.67L250.47 11.67L250.47 11.67Q250.56 11.77 250.83 11.77L250.83 11.77L250.83 11.77Q253.75 11.75 254.28 11.69L254.28 11.69L254.28 11.69Q254.80 11.63 254.88 11.38L254.88 11.38L254.88 11.36L254.89 11.35L255.12 10.17L255.60 10.25L255.25 12.41L248.14 12.41L248.14 11.87L248.51 11.87L248.51 11.87Q249.07 11.87 249.16 11.80L249.16 11.80L249.16 11.80Q249.25 11.72 249.25 11.33L249.25 11.33L249.25 4.24L249.25 4.24Q249.25 3.82 249.10 3.73L249.10 3.73L249.10 3.73Q248.93 3.64 248.27 3.64L248.27 3.64L247.88 3.64ZM263.85 8.02L263.85 8.02L263.85 8.02Q263.85 6.86 264.33 5.83L264.33 5.83L264.33 5.83Q264.79 4.85 265.54 4.27L265.54 4.27L265.54 4.27Q266.29 3.69 267.18 3.37L267.18 3.37L267.18 3.37Q268.08 3.05 268.92 3.05L268.92 3.05L268.92 3.05Q269.79 3.05 270.46 3.16L270.46 3.16L270.46 3.16Q271.09 3.26 271.38 3.37L271.38 3.37L271.38 3.37Q271.69 3.48 271.72 3.48L271.72 3.48L271.72 3.48Q271.89 3.48 271.91 3.41L271.91 3.41L271.91 3.41Q271.94 3.33 271.94 3.09L271.94 3.09L271.94 2.97L272.47 2.97L272.47 2.97Q272.51 4.30 272.64 5.64L272.64 5.64L272.14 5.65L272.14 5.65Q272.11 5.40 272.10 5.26L272.10 5.26L272.10 5.26Q272.10 5.20 272.09 5.13L272.09 5.13L272.09 5.13Q272.08 5.07 272.08 5.02L272.08 5.02L272.08 5.02Q272.07 4.98 272.07 4.95L272.07 4.95L272.07 4.95Q272.04 4.84 272.04 4.74L272.04 4.74L272.04 4.74Q272.04 4.68 272.00 4.59L272.00 4.59L272.00 4.59Q272.00 4.57 271.97 4.55L271.97 4.55L271.97 4.55Q271.94 4.52 271.94 4.50L271.94 4.50L271.94 4.50Q271.91 4.44 271.84 4.41L271.84 4.41L271.84 4.41Q271.80 4.38 271.78 4.37L271.78 4.37L271.78 4.37Q271.75 4.36 271.72 4.35L271.72 4.35L271.72 4.35Q271.71 4.35 271.68 4.33L271.68 4.33L271.68 4.33Q271.66 4.31 271.62 4.29L271.62 4.29L271.62 4.29Q271.58 4.27 271.54 4.25L271.54 4.25L271.54 4.25Q271.31 4.16 271.28 4.14L271.28 4.14L271.28 4.14Q270.94 3.96 270.29 3.83L270.29 3.83L270.29 3.83Q269.62 3.71 268.96 3.71L268.96 3.71L268.96 3.71Q267.24 3.71 266.14 4.84L266.14 4.84L266.14 4.84Q265.04 5.99 265.04 7.62L265.04 7.62L265.04 7.62Q265.04 9.35 266.26 10.69L266.26 10.69L266.26 10.69Q267.46 12.02 269.28 12.02L269.28 12.02L269.28 12.02Q270.29 12.02 271.23 11.49L271.23 11.49L271.23 11.49Q272.18 10.94 272.21 10.58L272.21 10.58L272.25 9.41L272.74 9.41L272.66 11.45L272.66 11.45Q272.59 11.49 272.46 11.57L272.46 11.57L272.46 11.57Q272.41 11.60 271.94 11.85L271.94 11.85L271.94 11.85Q271.56 12.05 271.12 12.23L271.12 12.23L271.12 12.23Q270.76 12.39 270.11 12.51L270.11 12.51L270.11 12.51Q269.50 12.63 268.93 12.64L268.93 12.64L268.93 12.64Q266.55 12.64 265.19 11.39L265.19 11.39L265.19 11.39Q263.85 10.14 263.85 8.02ZM281.14 3.64L280.77 3.64L280.77 3.08L284.26 3.08L284.26 3.64L283.90 3.64L283.90 3.64Q283.39 3.64 283.24 3.75L283.24 3.75L283.24 3.75Q283.10 3.84 283.10 4.25L283.10 4.25L283.10 6.91L287.65 6.91L287.65 4.14L287.65 4.14Q287.65 3.77 287.55 3.71L287.55 3.71L287.55 3.71Q287.44 3.64 286.92 3.64L286.92 3.64L286.33 3.64L286.32 3.08L289.87 3.08L289.87 3.64L289.48 3.64L289.48 3.64Q289.00 3.64 288.89 3.74L288.89 3.74L288.89 3.74Q288.78 3.83 288.78 4.22L288.78 4.22L288.78 11.29L288.78 11.29Q288.78 11.67 288.92 11.77L288.92 11.77L288.92 11.77Q289.08 11.87 289.63 11.87L289.63 11.87L290.10 11.87L290.08 12.41L286.60 12.41L286.58 11.87L286.99 11.87L286.99 11.87Q287.46 11.87 287.55 11.77L287.55 11.77L287.55 11.77Q287.65 11.67 287.65 11.25L287.65 11.25L287.65 7.58L283.10 7.58L283.10 11.25L283.10 11.25Q283.10 11.67 283.25 11.77L283.25 11.77L283.25 11.77Q283.40 11.87 284.11 11.87L284.11 11.87L284.51 11.87L284.48 12.41L280.90 12.41L280.89 11.87L281.25 11.87L281.25 11.87Q281.80 11.87 281.87 11.80L281.87 11.80L281.87 11.80Q281.96 11.70 281.96 11.25L281.96 11.25L281.96 4.09L281.96 4.09Q281.96 3.76 281.83 3.71L281.83 3.71L281.83 3.71Q281.65 3.64 281.14 3.64L281.14 3.64ZM307.42 3.64L307.41 3.08L314.59 3.08L314.59 3.08Q314.60 4.14 314.66 5.28L314.66 5.28L314.11 5.30L314.11 5.30Q314.10 4.66 314.04 4.25L314.04 4.25L314.04 4.25Q314.00 3.89 313.95 3.80L313.95 3.80L313.95 3.80Q313.89 3.71 313.78 3.69L313.78 3.69L313.78 3.69Q313.68 3.68 313.09 3.68L313.09 3.68L310.71 3.68L310.71 3.68Q310.17 3.68 310.02 3.77L310.02 3.77L310.02 3.77Q309.90 3.86 309.90 4.33L309.90 4.33L309.90 6.28L309.90 6.28Q309.90 6.69 309.96 6.76L309.96 6.76L309.96 6.76Q310.02 6.84 310.36 6.84L310.36 6.84L312.48 6.84L312.48 6.84Q312.84 6.84 312.92 6.74L312.92 6.74L312.92 6.74Q313.00 6.64 313.00 6.17L313.00 6.17L313.00 5.63L313.52 5.63L313.52 8.97L313.00 8.97L313.00 8.26L313.00 8.26Q313.00 7.68 312.92 7.57L312.92 7.57L312.92 7.57Q312.84 7.46 312.50 7.46L312.50 7.46L310.41 7.46L310.41 7.46Q310.07 7.46 309.99 7.54L309.99 7.54L309.99 7.54Q309.90 7.63 309.90 7.89L309.90 7.89L309.90 11.20L309.90 11.20Q309.90 11.60 309.97 11.73L309.97 11.73L309.97 11.73Q310.05 11.87 310.32 11.87L310.32 11.87L311.25 11.87L311.25 12.41L307.66 12.41L307.66 11.87L308.07 11.87L308.07 11.87Q308.57 11.87 308.67 11.79L308.67 11.79L308.67 11.79Q308.77 11.70 308.77 11.33L308.77 11.33L308.77 4.24L308.77 4.24Q308.77 3.79 308.59 3.71L308.59 3.71L308.59 3.71Q308.46 3.64 307.42 3.64L307.42 3.64ZM323.09 7.83L323.09 7.83L323.09 7.83Q323.09 6.62 323.49 5.68L323.49 5.68L323.49 5.68Q323.91 4.72 324.60 4.12L324.60 4.12L324.60 4.12Q325.29 3.51 326.15 3.19L326.15 3.19L326.15 3.19Q326.99 2.88 327.94 2.88L327.94 2.88L327.94 2.88Q329.20 2.88 330.25 3.40L330.25 3.40L330.25 3.40Q331.33 3.93 332.04 5.07L332.04 5.07L332.04 5.07Q332.74 6.17 332.75 7.75L332.75 7.75L332.75 7.75Q332.75 8.70 332.44 9.54L332.44 9.54L332.44 9.54Q332.13 10.38 331.53 11.10L331.53 11.10L331.53 11.10Q330.92 11.81 329.98 12.22L329.98 12.22L329.98 12.22Q329.02 12.63 327.83 12.64L327.83 12.64L327.83 12.64Q326.70 12.64 325.76 12.23L325.76 12.23L325.76 12.23Q324.82 11.83 324.26 11.14L324.26 11.14L324.26 11.14Q323.69 10.45 323.39 9.60L323.39 9.60L323.39 9.60Q323.09 8.72 323.09 7.83ZM324.34 7.38L324.34 7.38L324.34 7.38Q324.34 8.52 324.78 9.60L324.78 9.60L324.78 9.60Q325.18 10.64 326.11 11.33L326.11 11.33L326.11 11.33Q327.02 12.03 328.21 12.04L328.21 12.04L328.21 12.04Q329.58 12.04 330.52 11.01L330.52 11.01L330.52 11.01Q331.47 9.97 331.47 8.10L331.47 8.10L331.47 8.10Q331.47 5.99 330.31 4.72L330.31 4.72L330.31 4.72Q329.16 3.46 327.65 3.45L327.65 3.45L327.65 3.45Q327.13 3.45 326.58 3.65L326.58 3.65L326.58 3.65Q326.04 3.85 325.53 4.25L325.53 4.25L325.53 4.25Q324.99 4.68 324.67 5.48L324.67 5.48L324.67 5.48Q324.34 6.27 324.34 7.38ZM341.20 3.64L340.81 3.64L340.82 3.08L344.04 3.08L344.04 3.08Q345.17 3.08 345.78 3.21L345.78 3.21L345.78 3.21Q346.42 3.37 346.88 3.75L346.88 3.75L346.88 3.75Q347.89 4.57 347.89 5.71L347.89 5.71L347.89 5.71Q347.89 6.43 347.42 7.04L347.42 7.04L347.42 7.04Q346.92 7.66 345.89 7.92L345.89 7.92L348.58 11.49L348.58 11.49Q348.89 11.87 349.18 11.87L349.18 11.87L349.78 11.87L349.81 12.41L347.78 12.41L344.78 8.10L344.61 8.10L344.61 8.10Q344.57 8.10 344.52 8.11L344.52 8.11L344.52 8.11Q344.46 8.11 344.45 8.11L344.45 8.11L344.45 8.11Q343.57 8.11 343.17 8.03L343.17 8.03L343.17 11.46L343.17 11.46Q343.17 11.76 343.31 11.81L343.31 11.81L343.31 11.81Q343.44 11.87 344.14 11.87L344.14 11.87L344.85 11.87L344.83 12.41L341.10 12.41L341.10 11.87L341.42 11.87L341.42 11.87Q341.89 11.87 341.95 11.81L341.95 11.81L341.95 11.81Q342.04 11.74 342.04 11.46L342.04 11.46L342.04 4.14L342.04 4.14Q342.04 3.82 341.84 3.73L341.84 3.73L341.84 3.73Q341.62 3.64 341.20 3.64L341.20 3.64ZM343.17 4.28L343.17 7.57L343.17 7.57Q343.36 7.70 344.07 7.71L344.07 7.71L344.07 7.71Q345.34 7.71 345.92 7.27L345.92 7.27L345.92 7.27Q346.51 6.84 346.51 5.92L346.51 5.92L346.51 5.92Q346.51 4.92 345.73 4.27L345.73 4.27L345.73 4.27Q344.98 3.64 343.59 3.64L343.59 3.64L343.59 3.64Q343.34 3.64 343.26 3.75L343.26 3.75L343.26 3.75Q343.18 3.84 343.17 4.28L343.17 4.28ZM367.14 12.41L367.13 11.87L367.30 11.87L367.30 11.87Q367.69 11.87 367.82 11.73L367.82 11.73L367.82 11.73Q367.94 11.57 368.28 10.83L368.28 10.83L369.19 8.82L369.76 7.53L369.76 7.53Q370.03 6.97 370.07 6.86L370.07 6.86L370.07 6.86Q370.14 6.70 370.19 6.60L370.19 6.60L370.19 6.60Q370.24 6.51 370.25 6.45L370.25 6.45L370.35 6.21L371.78 2.74L372.07 2.74L372.07 2.74Q372.93 4.98 375.12 10.25L375.12 10.25L375.12 10.25Q375.57 11.34 375.76 11.64L375.76 11.64L375.76 11.64Q375.89 11.87 376.33 11.87L376.33 11.87L376.54 11.87L376.53 12.41L373.34 12.41L373.35 11.87L373.77 11.87L373.77 11.87Q374.38 11.87 374.38 11.70L374.38 11.70L374.38 11.70Q374.38 11.63 374.25 11.27L374.25 11.27L373.21 8.72L369.96 8.72L368.85 11.18L368.85 11.18Q368.72 11.50 368.72 11.63L368.72 11.63L368.72 11.63Q368.72 11.79 368.81 11.83L368.81 11.83L368.81 11.83Q368.91 11.87 369.29 11.87L369.29 11.87L369.87 11.87L369.87 12.41L367.14 12.41ZM371.64 4.79L370.23 8.10L372.97 8.10L371.64 4.79ZM394.24 3.64L393.85 3.64L393.87 3.08L396.97 3.08L396.97 3.08Q398.71 3.08 399.49 3.75L399.49 3.75L399.49 3.75Q400.26 4.42 400.26 5.37L400.26 5.37L400.26 5.37Q400.26 6.08 399.72 6.60L399.72 6.60L399.72 6.60Q399.16 7.14 398.47 7.35L398.47 7.35L398.47 7.35Q399.55 7.57 400.08 8.34L400.08 8.34L400.08 8.34Q400.60 9.08 400.59 10.01L400.59 10.01L400.59 10.01Q400.59 11.01 399.96 11.59L399.96 11.59L399.96 11.59Q399.36 12.13 398.41 12.28L398.41 12.28L398.41 12.28Q397.49 12.41 395.94 12.41L395.94 12.41L393.96 12.41L393.96 11.87L394.38 11.87L394.38 11.87Q394.74 11.87 394.85 11.80L394.85 11.80L394.85 11.80Q394.97 11.73 394.97 11.46L394.97 11.46L394.97 4.14L394.97 4.14Q394.97 3.81 394.82 3.72L394.82 3.72L394.82 3.72Q394.68 3.64 394.24 3.64L394.24 3.64ZM396.07 7.59L396.07 7.59L396.10 11.35L396.10 11.35Q396.10 11.63 396.27 11.71L396.27 11.71L396.27 11.71Q396.44 11.80 397.01 11.80L397.01 11.80L397.01 11.80Q399.27 11.80 399.27 9.91L399.27 9.91L399.27 9.91Q399.27 9.22 398.95 8.73L398.95 8.73L398.95 8.73Q398.63 8.24 398.10 8.02L398.10 8.02L398.10 8.02Q397.52 7.75 397.08 7.68L397.08 7.68L397.08 7.68Q396.60 7.59 396.07 7.59ZM396.10 4.01L396.10 7.19L397.48 7.19L397.48 7.19Q398.13 7.19 398.55 6.66L398.55 6.66L398.55 6.66Q398.95 6.15 398.96 5.54L398.96 5.54L398.96 5.54Q398.96 4.85 398.37 4.27L398.37 4.27L398.37 4.27Q397.80 3.69 396.52 3.69L396.52 3.69L396.52 3.69Q396.10 3.69 396.10 4.01L396.10 4.01ZM408.65 3.64L408.64 3.08L415.85 3.08L415.85 3.08Q415.86 4.14 415.92 5.28L415.92 5.28L415.37 5.30L415.37 5.30Q415.36 4.66 415.30 4.25L415.30 4.25L415.30 4.25Q415.26 3.89 415.21 3.80L415.21 3.80L415.21 3.80Q415.15 3.71 415.04 3.69L415.04 3.69L415.04 3.69Q414.94 3.68 414.35 3.68L414.35 3.68L411.97 3.68L411.97 3.68Q411.43 3.68 411.28 3.77L411.28 3.77L411.28 3.77Q411.16 3.86 411.16 4.33L411.16 4.33L411.16 6.28L411.16 6.28Q411.16 6.69 411.22 6.76L411.22 6.76L411.22 6.76Q411.28 6.84 411.63 6.84L411.63 6.84L413.74 6.84L413.74 6.84Q414.10 6.84 414.18 6.73L414.18 6.73L414.18 6.73Q414.26 6.63 414.27 6.14L414.27 6.14L414.27 5.61L414.78 5.63L414.78 8.97L414.27 8.97L414.27 8.24L414.27 8.24Q414.27 7.66 414.20 7.57L414.20 7.57L414.20 7.57Q414.11 7.46 413.77 7.46L413.77 7.46L411.67 7.46L411.67 7.46Q411.33 7.46 411.25 7.54L411.25 7.54L411.25 7.54Q411.16 7.63 411.16 7.89L411.16 7.89L411.16 11.20L411.16 11.20Q411.16 11.57 411.25 11.67L411.25 11.67L411.25 11.67Q411.33 11.77 411.61 11.77L411.61 11.77L411.61 11.77Q414.52 11.75 415.05 11.69L415.05 11.69L415.05 11.69Q415.57 11.63 415.65 11.38L415.65 11.38L415.66 11.36L415.67 11.35L415.89 10.17L416.37 10.25L416.02 12.41L408.92 12.41L408.92 11.87L409.29 11.87L409.29 11.87Q409.85 11.87 409.93 11.80L409.93 11.80L409.93 11.80Q410.03 11.72 410.03 11.33L410.03 11.33L410.03 4.24L410.03 4.24Q410.03 3.82 409.88 3.73L409.88 3.73L409.88 3.73Q409.71 3.64 409.05 3.64L409.05 3.64L408.65 3.64ZM424.53 5.35L424.03 5.33L424.03 5.33Q424.15 4.17 424.23 3.08L424.23 3.08L432.31 3.08L432.31 3.08Q432.23 4.13 432.20 4.53L432.20 4.53L432.20 4.53Q432.16 5.26 432.14 5.32L432.14 5.32L431.64 5.30L431.64 5.30Q431.72 4.34 431.72 4.16L431.72 4.16L431.72 4.16Q431.72 3.88 431.58 3.79L431.58 3.79L431.58 3.79Q431.41 3.69 431.01 3.69L431.01 3.69L429.40 3.69L429.40 3.69Q428.89 3.69 428.77 3.79L428.77 3.79L428.77 3.79Q428.67 3.87 428.67 4.36L428.67 4.36L428.67 11.22L428.67 11.22Q428.67 11.66 428.81 11.76L428.81 11.76L428.81 11.76Q428.97 11.87 429.48 11.87L429.48 11.87L430.04 11.87L430.06 12.41L426.36 12.40L426.36 11.87L426.58 11.87L426.58 11.87Q427.25 11.87 427.40 11.79L427.40 11.79L427.40 11.79Q427.54 11.70 427.54 11.28L427.54 11.28L427.54 4.48L427.54 4.48Q427.54 3.92 427.44 3.80L427.44 3.80L427.44 3.80Q427.34 3.69 426.92 3.69L426.92 3.69L425.45 3.69L425.45 3.69Q425.26 3.69 425.20 3.71L425.20 3.71L425.20 3.71Q425.13 3.72 425.02 3.72L425.02 3.72L425.02 3.72Q424.99 3.72 424.87 3.79L424.87 3.79L424.87 3.79Q424.79 3.84 424.76 3.86L424.76 3.86L424.76 3.86Q424.74 3.88 424.70 3.99L424.70 3.99L424.70 3.99Q424.67 4.05 424.64 4.14L424.64 4.14L424.64 4.14Q424.61 4.21 424.59 4.36L424.59 4.36L424.59 4.36Q424.57 4.59 424.57 4.61L424.57 4.61L424.57 4.61Q424.57 4.80 424.55 4.95L424.55 4.95L424.55 4.95Q424.55 5.02 424.55 5.15L424.55 5.15L424.55 5.15Q424.54 5.29 424.53 5.35L424.53 5.35ZM440.33 5.35L439.83 5.33L439.83 5.33Q439.95 4.17 440.04 3.08L440.04 3.08L448.12 3.08L448.12 3.08Q448.03 4.13 448.01 4.53L448.01 4.53L448.01 4.53Q447.97 5.26 447.95 5.32L447.95 5.32L447.45 5.30L447.45 5.30Q447.53 4.34 447.53 4.16L447.53 4.16L447.53 4.16Q447.53 3.88 447.38 3.79L447.38 3.79L447.38 3.79Q447.21 3.69 446.81 3.69L446.81 3.69L445.20 3.69L445.20 3.69Q444.70 3.69 444.58 3.79L444.58 3.79L444.58 3.79Q444.48 3.87 444.47 4.36L444.47 4.36L444.47 11.22L444.47 11.22Q444.47 11.66 444.62 11.76L444.62 11.76L444.62 11.76Q444.77 11.87 445.29 11.87L445.29 11.87L445.85 11.87L445.86 12.41L442.17 12.40L442.17 11.87L442.39 11.87L442.39 11.87Q443.06 11.87 443.20 11.79L443.20 11.79L443.20 11.79Q443.34 11.70 443.34 11.28L443.34 11.28L443.34 4.48L443.34 4.48Q443.34 3.92 443.25 3.80L443.25 3.80L443.25 3.80Q443.15 3.69 442.72 3.69L442.72 3.69L441.25 3.69L441.25 3.69Q441.07 3.69 441 3.71L441 3.71L441 3.71Q440.93 3.72 440.82 3.72L440.82 3.72L440.82 3.72Q440.79 3.72 440.68 3.79L440.68 3.79L440.68 3.79Q440.60 3.84 440.57 3.86L440.57 3.86L440.57 3.86Q440.54 3.88 440.50 3.99L440.50 3.99L440.50 3.99Q440.47 4.05 440.45 4.14L440.45 4.14L440.45 4.14Q440.42 4.21 440.40 4.36L440.40 4.36L440.40 4.36Q440.37 4.59 440.37 4.61L440.37 4.61L440.37 4.61Q440.37 4.80 440.36 4.95L440.36 4.95L440.36 4.95Q440.36 5.02 440.35 5.15L440.35 5.15L440.35 5.15Q440.34 5.29 440.33 5.35L440.33 5.35ZM455.87 3.64L455.85 3.08L463.07 3.08L463.07 3.08Q463.08 4.14 463.13 5.28L463.13 5.28L462.59 5.30L462.59 5.30Q462.57 4.66 462.52 4.25L462.52 4.25L462.52 4.25Q462.48 3.89 462.42 3.80L462.42 3.80L462.42 3.80Q462.37 3.71 462.25 3.69L462.25 3.69L462.25 3.69Q462.16 3.68 461.57 3.68L461.57 3.68L459.19 3.68L459.19 3.68Q458.64 3.68 458.50 3.77L458.50 3.77L458.50 3.77Q458.38 3.86 458.38 4.33L458.38 4.33L458.38 6.28L458.38 6.28Q458.38 6.69 458.43 6.76L458.43 6.76L458.43 6.76Q458.50 6.84 458.84 6.84L458.84 6.84L460.95 6.84L460.95 6.84Q461.32 6.84 461.40 6.73L461.40 6.73L461.40 6.73Q461.48 6.63 461.49 6.14L461.49 6.14L461.49 5.61L462 5.63L462 8.97L461.49 8.97L461.49 8.24L461.49 8.24Q461.49 7.66 461.41 7.57L461.41 7.57L461.41 7.57Q461.33 7.46 460.98 7.46L460.98 7.46L458.88 7.46L458.88 7.46Q458.55 7.46 458.46 7.54L458.46 7.54L458.46 7.54Q458.38 7.63 458.38 7.89L458.38 7.89L458.38 11.20L458.38 11.20Q458.38 11.57 458.46 11.67L458.46 11.67L458.46 11.67Q458.55 11.77 458.82 11.77L458.82 11.77L458.82 11.77Q461.74 11.75 462.27 11.69L462.27 11.69L462.27 11.69Q462.79 11.63 462.87 11.38L462.87 11.38L462.88 11.36L462.88 11.35L463.11 10.17L463.59 10.25L463.24 12.41L456.13 12.41L456.13 11.87L456.50 11.87L456.50 11.87Q457.06 11.87 457.15 11.80L457.15 11.80L457.15 11.80Q457.24 11.72 457.24 11.33L457.24 11.33L457.24 4.24L457.24 4.24Q457.24 3.82 457.09 3.73L457.09 3.73L457.09 3.73Q456.92 3.64 456.26 3.64L456.26 3.64L455.87 3.64ZM471.80 3.64L471.41 3.64L471.42 3.08L474.64 3.08L474.64 3.08Q475.77 3.08 476.38 3.21L476.38 3.21L476.38 3.21Q477.02 3.37 477.48 3.75L477.48 3.75L477.48 3.75Q478.49 4.57 478.49 5.71L478.49 5.71L478.49 5.71Q478.49 6.43 478.02 7.04L478.02 7.04L478.02 7.04Q477.52 7.66 476.49 7.92L476.49 7.92L479.18 11.49L479.18 11.49Q479.49 11.87 479.78 11.87L479.78 11.87L480.38 11.87L480.41 12.41L478.38 12.41L475.38 8.10L475.21 8.10L475.21 8.10Q475.17 8.10 475.12 8.11L475.12 8.11L475.12 8.11Q475.06 8.11 475.05 8.11L475.05 8.11L475.05 8.11Q474.17 8.11 473.77 8.03L473.77 8.03L473.77 11.46L473.77 11.46Q473.77 11.76 473.92 11.81L473.92 11.81L473.92 11.81Q474.04 11.87 474.74 11.87L474.74 11.87L475.45 11.87L475.43 12.41L471.70 12.41L471.70 11.87L472.02 11.87L472.02 11.87Q472.49 11.87 472.55 11.81L472.55 11.81L472.55 11.81Q472.64 11.74 472.64 11.46L472.64 11.46L472.64 4.14L472.64 4.14Q472.64 3.82 472.45 3.73L472.45 3.73L472.45 3.73Q472.22 3.64 471.80 3.64L471.80 3.64ZM473.77 4.28L473.77 7.57L473.77 7.57Q473.96 7.70 474.67 7.71L474.67 7.71L474.67 7.71Q475.94 7.71 476.52 7.27L476.52 7.27L476.52 7.27Q477.11 6.84 477.11 5.92L477.11 5.92L477.11 5.92Q477.11 4.92 476.33 4.27L476.33 4.27L476.33 4.27Q475.58 3.64 474.20 3.64L474.20 3.64L474.20 3.64Q473.94 3.64 473.86 3.75L473.86 3.75L473.86 3.75Q473.78 3.84 473.77 4.28L473.77 4.28ZM498.01 5.35L497.51 5.33L497.51 5.33Q497.64 4.17 497.72 3.08L497.72 3.08L505.80 3.08L505.80 3.08Q505.72 4.13 505.69 4.53L505.69 4.53L505.69 4.53Q505.65 5.26 505.63 5.32L505.63 5.32L505.13 5.30L505.13 5.30Q505.21 4.34 505.21 4.16L505.21 4.16L505.21 4.16Q505.21 3.88 505.07 3.79L505.07 3.79L505.07 3.79Q504.90 3.69 504.49 3.69L504.49 3.69L502.89 3.69L502.89 3.69Q502.38 3.69 502.26 3.79L502.26 3.79L502.26 3.79Q502.16 3.87 502.15 4.36L502.15 4.36L502.15 11.22L502.15 11.22Q502.15 11.66 502.30 11.76L502.30 11.76L502.30 11.76Q502.46 11.87 502.97 11.87L502.97 11.87L503.53 11.87L503.54 12.41L499.85 12.40L499.85 11.87L500.07 11.87L500.07 11.87Q500.74 11.87 500.88 11.79L500.88 11.79L500.88 11.79Q501.03 11.70 501.03 11.28L501.03 11.28L501.03 4.48L501.03 4.48Q501.03 3.92 500.93 3.80L500.93 3.80L500.93 3.80Q500.83 3.69 500.40 3.69L500.40 3.69L498.93 3.69L498.93 3.69Q498.75 3.69 498.68 3.71L498.68 3.71L498.68 3.71Q498.61 3.72 498.50 3.72L498.50 3.72L498.50 3.72Q498.48 3.72 498.36 3.79L498.36 3.79L498.36 3.79Q498.28 3.84 498.25 3.86L498.25 3.86L498.25 3.86Q498.22 3.88 498.18 3.99L498.18 3.99L498.18 3.99Q498.16 4.05 498.13 4.14L498.13 4.14L498.13 4.14Q498.10 4.21 498.08 4.36L498.08 4.36L498.08 4.36Q498.05 4.59 498.05 4.61L498.05 4.61L498.05 4.61Q498.05 4.80 498.04 4.95L498.04 4.95L498.04 4.95Q498.04 5.02 498.03 5.15L498.03 5.15L498.03 5.15Q498.03 5.29 498.01 5.35L498.01 5.35ZM513.92 7.83L513.92 7.83L513.92 7.83Q513.92 6.62 514.32 5.68L514.32 5.68L514.32 5.68Q514.74 4.72 515.43 4.12L515.43 4.12L515.43 4.12Q516.12 3.51 516.98 3.19L516.98 3.19L516.98 3.19Q517.82 2.88 518.77 2.88L518.77 2.88L518.77 2.88Q520.03 2.88 521.08 3.40L521.08 3.40L521.08 3.40Q522.16 3.93 522.87 5.07L522.87 5.07L522.87 5.07Q523.57 6.17 523.58 7.75L523.58 7.75L523.58 7.75Q523.58 8.70 523.27 9.54L523.27 9.54L523.27 9.54Q522.96 10.38 522.36 11.10L522.36 11.10L522.36 11.10Q521.75 11.81 520.82 12.22L520.82 12.22L520.82 12.22Q519.85 12.63 518.66 12.64L518.66 12.64L518.66 12.64Q517.53 12.64 516.59 12.23L516.59 12.23L516.59 12.23Q515.66 11.83 515.09 11.14L515.09 11.14L515.09 11.14Q514.52 10.45 514.23 9.60L514.23 9.60L514.23 9.60Q513.92 8.72 513.92 7.83ZM515.18 7.38L515.18 7.38L515.18 7.38Q515.18 8.52 515.61 9.60L515.61 9.60L515.61 9.60Q516.01 10.64 516.94 11.33L516.94 11.33L516.94 11.33Q517.85 12.03 519.04 12.04L519.04 12.04L519.04 12.04Q520.41 12.04 521.35 11.01L521.35 11.01L521.35 11.01Q522.30 9.97 522.30 8.10L522.30 8.10L522.30 8.10Q522.30 5.99 521.14 4.72L521.14 4.72L521.14 4.72Q519.99 3.46 518.48 3.45L518.48 3.45L518.48 3.45Q517.96 3.45 517.42 3.65L517.42 3.65L517.42 3.65Q516.87 3.85 516.37 4.25L516.37 4.25L516.37 4.25Q515.82 4.68 515.50 5.48L515.50 5.48L515.50 5.48Q515.18 6.27 515.18 7.38ZM534.86 12.41L531.84 12.41L531.84 11.87L531.97 11.87L531.97 11.87Q532.56 11.87 532.68 11.77L532.68 11.77L532.68 11.77Q532.80 11.68 532.81 11.21L532.81 11.21L532.94 4.38L532.94 4.38Q532.94 4.35 532.95 4.28L532.95 4.28L532.95 4.28Q532.96 4.21 532.96 4.17L532.96 4.17L532.96 4.01L532.96 4.01Q532.96 3.76 532.88 3.71L532.88 3.71L532.88 3.71Q532.79 3.64 532.56 3.64L532.56 3.64L531.85 3.64L531.84 3.08L533.95 3.08L537.14 10.55L540.28 3.08L542.51 3.08L542.51 3.64L542.04 3.64L542.04 3.64Q541.59 3.64 541.47 3.71L541.47 3.71L541.47 3.71Q541.31 3.79 541.31 4.08L541.31 4.08L541.31 11.22L541.31 11.22Q541.31 11.68 541.42 11.77L541.42 11.77L541.42 11.77Q541.54 11.87 542.17 11.87L542.17 11.87L542.45 11.87L542.46 12.41L539.06 12.41L539.04 11.87L539.32 11.87L539.32 11.87Q539.94 11.87 540.05 11.77L540.05 11.77L540.05 11.77Q540.18 11.66 540.18 11.25L540.18 11.25L540.18 4.83L538.02 9.91L537.17 12.02L537.17 12.02Q537.03 12.37 536.99 12.44L536.99 12.44L536.99 12.44Q536.94 12.51 536.87 12.51L536.87 12.51L536.87 12.51Q536.78 12.51 536.33 11.52L536.33 11.52L533.52 5.01L533.46 11.39L533.46 11.39Q533.46 11.74 533.65 11.80L533.65 11.80L533.65 11.80Q533.89 11.87 534.86 11.87L534.86 11.87L534.86 12.41ZM550.57 7.83L550.57 7.83L550.57 7.83Q550.57 6.62 550.97 5.68L550.97 5.68L550.97 5.68Q551.39 4.72 552.08 4.12L552.08 4.12L552.08 4.12Q552.77 3.51 553.63 3.19L553.63 3.19L553.63 3.19Q554.47 2.88 555.42 2.88L555.42 2.88L555.42 2.88Q556.68 2.88 557.73 3.40L557.73 3.40L557.73 3.40Q558.81 3.93 559.52 5.07L559.52 5.07L559.52 5.07Q560.22 6.17 560.23 7.75L560.23 7.75L560.23 7.75Q560.23 8.70 559.92 9.54L559.92 9.54L559.92 9.54Q559.61 10.38 559.01 11.10L559.01 11.10L559.01 11.10Q558.40 11.81 557.46 12.22L557.46 12.22L557.46 12.22Q556.50 12.63 555.31 12.64L555.31 12.64L555.31 12.64Q554.18 12.64 553.24 12.23L553.24 12.23L553.24 12.23Q552.30 11.83 551.74 11.14L551.74 11.14L551.74 11.14Q551.17 10.45 550.87 9.60L550.87 9.60L550.87 9.60Q550.57 8.72 550.57 7.83ZM551.82 7.38L551.82 7.38L551.82 7.38Q551.82 8.52 552.25 9.60L552.25 9.60L552.25 9.60Q552.66 10.64 553.59 11.33L553.59 11.33L553.59 11.33Q554.50 12.03 555.69 12.04L555.69 12.04L555.69 12.04Q557.06 12.04 558.00 11.01L558.00 11.01L558.00 11.01Q558.95 9.97 558.95 8.10L558.95 8.10L558.95 8.10Q558.95 5.99 557.79 4.72L557.79 4.72L557.79 4.72Q556.64 3.46 555.13 3.45L555.13 3.45L555.13 3.45Q554.61 3.45 554.06 3.65L554.06 3.65L554.06 3.65Q553.52 3.85 553.01 4.25L553.01 4.25L553.01 4.25Q552.47 4.68 552.15 5.48L552.15 5.48L552.15 5.48Q551.82 6.27 551.82 7.38ZM568.67 3.64L568.29 3.64L568.30 3.08L571.52 3.08L571.52 3.08Q572.65 3.08 573.25 3.21L573.25 3.21L573.25 3.21Q573.90 3.37 574.36 3.75L574.36 3.75L574.36 3.75Q575.37 4.57 575.37 5.71L575.37 5.71L575.37 5.71Q575.37 6.43 574.90 7.04L574.90 7.04L574.90 7.04Q574.40 7.66 573.37 7.92L573.37 7.92L576.06 11.49L576.06 11.49Q576.37 11.87 576.66 11.87L576.66 11.87L577.26 11.87L577.29 12.41L575.26 12.41L572.26 8.10L572.09 8.10L572.09 8.10Q572.05 8.10 572.00 8.11L572.00 8.11L572.00 8.11Q571.94 8.11 571.93 8.11L571.93 8.11L571.93 8.11Q571.05 8.11 570.65 8.03L570.65 8.03L570.65 11.46L570.65 11.46Q570.65 11.76 570.79 11.81L570.79 11.81L570.79 11.81Q570.92 11.87 571.62 11.87L571.62 11.87L572.33 11.87L572.30 12.41L568.58 12.41L568.58 11.87L568.90 11.87L568.90 11.87Q569.37 11.87 569.43 11.81L569.43 11.81L569.43 11.81Q569.52 11.74 569.52 11.46L569.52 11.46L569.52 4.14L569.52 4.14Q569.52 3.82 569.32 3.73L569.32 3.73L569.32 3.73Q569.10 3.64 568.67 3.64L568.67 3.64ZM570.65 4.28L570.65 7.57L570.65 7.57Q570.83 7.70 571.55 7.71L571.55 7.71L571.55 7.71Q572.82 7.71 573.40 7.27L573.40 7.27L573.40 7.27Q573.99 6.84 573.99 5.92L573.99 5.92L573.99 5.92Q573.99 4.92 573.21 4.27L573.21 4.27L573.21 4.27Q572.46 3.64 571.07 3.64L571.07 3.64L571.07 3.64Q570.82 3.64 570.74 3.75L570.74 3.75L570.74 3.75Q570.66 3.84 570.65 4.28L570.65 4.28ZM585.38 3.64L584.99 3.64L585.00 3.08L588.22 3.08L588.22 3.08Q589.35 3.08 589.96 3.21L589.96 3.21L589.96 3.21Q590.60 3.37 591.06 3.75L591.06 3.75L591.06 3.75Q592.07 4.57 592.07 5.71L592.07 5.71L592.07 5.71Q592.07 6.43 591.60 7.04L591.60 7.04L591.60 7.04Q591.10 7.66 590.07 7.92L590.07 7.92L592.76 11.49L592.76 11.49Q593.07 11.87 593.36 11.87L593.36 11.87L593.96 11.87L593.99 12.41L591.96 12.41L588.96 8.10L588.79 8.10L588.79 8.10Q588.75 8.10 588.70 8.11L588.70 8.11L588.70 8.11Q588.64 8.11 588.63 8.11L588.63 8.11L588.63 8.11Q587.75 8.11 587.35 8.03L587.35 8.03L587.35 11.46L587.35 11.46Q587.35 11.76 587.49 11.81L587.49 11.81L587.49 11.81Q587.62 11.87 588.32 11.87L588.32 11.87L589.03 11.87L589.00 12.41L585.28 12.41L585.28 11.87L585.60 11.87L585.60 11.87Q586.07 11.87 586.13 11.81L586.13 11.81L586.13 11.81Q586.22 11.74 586.22 11.46L586.22 11.46L586.22 4.14L586.22 4.14Q586.22 3.82 586.02 3.73L586.02 3.73L586.02 3.73Q585.80 3.64 585.38 3.64L585.38 3.64ZM587.35 4.28L587.35 7.57L587.35 7.57Q587.54 7.70 588.25 7.71L588.25 7.71L588.25 7.71Q589.52 7.71 590.10 7.27L590.10 7.27L590.10 7.27Q590.69 6.84 590.69 5.92L590.69 5.92L590.69 5.92Q590.69 4.92 589.91 4.27L589.91 4.27L589.91 4.27Q589.16 3.64 587.77 3.64L587.77 3.64L587.77 3.64Q587.52 3.64 587.44 3.75L587.44 3.75L587.44 3.75Q587.36 3.84 587.35 4.28L587.35 4.28ZM602.12 7.83L602.12 7.83L602.12 7.83Q602.12 6.62 602.53 5.68L602.53 5.68L602.53 5.68Q602.94 4.72 603.63 4.12L603.63 4.12L603.63 4.12Q604.32 3.51 605.19 3.19L605.19 3.19L605.19 3.19Q606.03 2.88 606.98 2.88L606.98 2.88L606.98 2.88Q608.23 2.88 609.29 3.40L609.29 3.40L609.29 3.40Q610.37 3.93 611.08 5.07L611.08 5.07L611.08 5.07Q611.78 6.17 611.78 7.75L611.78 7.75L611.78 7.75Q611.78 8.70 611.47 9.54L611.47 9.54L611.47 9.54Q611.17 10.38 610.56 11.10L610.56 11.10L610.56 11.10Q609.96 11.81 609.02 12.22L609.02 12.22L609.02 12.22Q608.06 12.63 606.87 12.64L606.87 12.64L606.87 12.64Q605.73 12.64 604.80 12.23L604.80 12.23L604.80 12.23Q603.86 11.83 603.30 11.14L603.30 11.14L603.30 11.14Q602.72 10.45 602.43 9.60L602.43 9.60L602.43 9.60Q602.12 8.72 602.12 7.83ZM603.38 7.38L603.38 7.38L603.38 7.38Q603.38 8.52 603.81 9.60L603.81 9.60L603.81 9.60Q604.21 10.64 605.14 11.33L605.14 11.33L605.14 11.33Q606.05 12.03 607.24 12.04L607.24 12.04L607.24 12.04Q608.62 12.04 609.55 11.01L609.55 11.01L609.55 11.01Q610.50 9.97 610.50 8.10L610.50 8.10L610.50 8.10Q610.50 5.99 609.34 4.72L609.34 4.72L609.34 4.72Q608.19 3.46 606.68 3.45L606.68 3.45L606.68 3.45Q606.16 3.45 605.62 3.65L605.62 3.65L605.62 3.65Q605.08 3.85 604.57 4.25L604.57 4.25L604.57 4.25Q604.02 4.68 603.70 5.48L603.70 5.48L603.70 5.48Q603.38 6.27 603.38 7.38ZM620.28 3.64L620.04 3.64L620.04 3.08L623.14 3.08L623.13 3.64L622.82 3.64L622.82 3.64Q622.00 3.64 622.00 3.94L622.00 3.94L622.00 3.94Q622.00 4.03 622.03 4.09L622.03 4.09L624.45 10.76L626.76 4.85L626.66 4.57L626.66 4.57Q626.63 4.52 626.61 4.44L626.61 4.44L626.61 4.44Q626.59 4.36 626.57 4.31L626.57 4.31L626.57 4.31Q626.55 4.25 626.53 4.22L626.53 4.22L626.53 4.22Q626.51 4.16 626.41 3.96L626.41 3.96L626.41 3.96Q626.33 3.80 626.21 3.71L626.21 3.71L626.21 3.71Q626.13 3.64 625.96 3.64L625.96 3.64L625.28 3.64L625.28 3.08L628.61 3.08L628.61 3.64L627.87 3.64L627.87 3.64Q627.63 3.64 627.57 3.68L627.57 3.68L627.57 3.68Q627.50 3.72 627.50 3.86L627.50 3.86L627.50 3.86Q627.50 4.00 627.75 4.76L627.75 4.76L629.79 10.72L632.29 4.18L632.29 4.18Q632.34 4.01 632.34 3.94L632.34 3.94L632.34 3.94Q632.34 3.75 632.17 3.69L632.17 3.69L632.17 3.69Q632.02 3.64 631.66 3.64L631.66 3.64L631.29 3.64L631.29 3.08L633.69 3.08L633.71 3.64L633.53 3.64L633.53 3.64Q633.19 3.64 633.09 3.77L633.09 3.77L633.09 3.77Q632.97 3.96 632.72 4.60L632.72 4.60L629.63 12.64L629.39 12.64L627.01 5.64L624.29 12.63L624.07 12.63L621.10 4.52L621.10 4.52Q620.89 3.96 620.72 3.79L620.72 3.79L620.72 3.79Q620.57 3.63 620.28 3.64L620.28 3.64Z"></path></g></svg>