<svg xmlns="http://www.w3.org/2000/svg" xmlns:xlink="http://www.w3.org/1999/xlink" id="Layer_1" x="0" y="0" version="1.1" viewBox="0 0 32 32" xml:space="preserve" style="enable-background:new 0 0 32 32"><path fill="#fff" d="M29.974,15.036l-12.461,15.9c-1.396,1.396-1.659,1.396-3.055,0l-12.433-15.9	C0.967,13.332,0,11.518,0,9c0-4.694,3.306-9,8-9c3.332,0,6.013,1.877,7.969,4.518C17.983,1.964,20.667,0,24,0c4.694,0,8,4.306,8,9	C32,11.519,31.22,13.333,29.974,15.036z M24,2c-2.916,0-6.268,3.235-8,5.546C14.222,5.151,10.916,1.974,8,2C4.455,2.031,2,5.333,2,9	c0,1.967,0.171,2.75,2,5.531l11,13.962c0.935,0.954,0.939,0.996,2-0.03l11-13.87c1.815-2.364,2-3.626,2-5.594	C30,5.333,27.451,2,24,2z" style="fill-rule:evenodd;clip-rule:evenodd"/></svg>