<svg xmlns="http://www.w3.org/2000/svg" xmlns:xlink="http://www.w3.org/1999/xlink" id="Layer_1" width="32" height="32" x="0" style="enable-background:new 0 0 33 33" y="0" version="1.1" viewBox="0 0 33 33" xml:space="preserve"><path fill="#000" d="M17,33C8.163,33,1,25.837,1,17C1,8.163,8.163,1,17,1c8.837,0,16,7.163,16,16	C33,25.837,25.837,33,17,33z M17,3C9.268,3,3,9.268,3,17s6.268,14,14,14c7.732,0,14-6.268,14-14S24.732,3,17,3z M16,18v-2V8h2v8h8v2	h-8H16z" style="fill-rule:evenodd;clip-rule:evenodd"/></svg>