<svg xmlns="http://www.w3.org/2000/svg" xmlns:xlink="http://www.w3.org/1999/xlink" id="Layer_1" width="32" height="32" x="0" style="enable-background:new 0 0 33 33" y="0" version="1.1" viewBox="0 0 33 33" xml:space="preserve"><path fill="#000" d="M30,32H2H0v-2V20v-2l0,0L3,0h1h24h1l3,18l0,0v12v2H30z M27.289,2H4.711	l-2.4,16H9h2v2v2h10v-2v-2h2h6.689L27.289,2z M30,20.075L29.989,20H23v2v1v1H11H9v-2v-2H2.011L2,20.075V30h28V20.075z M8,12h16v2H8	V12z M10,6h12v2H10V6z" style="fill-rule:evenodd;clip-rule:evenodd"/></svg>