<svg xmlns="http://www.w3.org/2000/svg" xmlns:xlink="http://www.w3.org/1999/xlink" id="Layer_1" width="32" height="32" x="0" style="enable-background:new 0 0 33 33" y="0" version="1.1" viewBox="0 0 33 33" xml:space="preserve"><path fill="#fff" d="M31,32H3H1v-2V10V8h2h4h8V4V2h2h8h2v2v4h4h2v2v20v2H31z M25,4h-8v4h8V4z M31,10H3v20h28V10z M21,14c3.314,0,6,2.686,6,6s-2.686,6-6,6s-6-2.686-6-6S17.686,14,21,14z M5,6c0-1.105,0.895-2,2-2s2,0.895,2,2	S8.105,8,7,8S5,7.105,5,6z" style="fill-rule:evenodd;clip-rule:evenodd"/><path fill="#fff" d="M21,16c2.209,0,4,1.791,4,4s-1.791,4-4,4c-2.209,0-4-1.791-4-4	S18.791,16,21,16z" style="fill-rule:evenodd;clip-rule:evenodd;fill:#fff"/></svg>