<svg xmlns="http://www.w3.org/2000/svg" xmlns:xlink="http://www.w3.org/1999/xlink" id="Layer_1" width="32" height="32" x="0" style="enable-background:new 0 0 32 32" y="0" version="1.1" viewBox="0 0 32 32" xml:space="preserve"><path fill="#fff" d="M27.817,32H3.974C1.779,32,0,30.22,0,28.024V4.165C0,1.969,1.805,0,4,0h16v2	H4C2.903,2,1.987,3.067,1.987,4.165v23.859c0,1.098,0.89,1.988,1.987,1.988h23.843C28.914,30.012,30,29.098,30,28V12h2v16	C32,30.196,30.012,32,27.817,32z M15.941,22.365c-0.291,0.291-0.654,0.436-1.029,0.509l-8.7,4.303	c-0.979,0.455-1.763-0.424-1.403-1.403l4.3-8.706c0.073-0.375,0.218-0.739,0.509-1.03L25.074,0.573c0.776-0.776,2.034-0.776,2.81,0	l3.512,3.515c0.776,0.776,0.776,2.036,0,2.812L15.941,22.365z M6.713,24.571C6.485,25.03,6.924,25.5,7.414,25.273l5.372-3.254	l-2.822-2.823L6.713,24.571z M11.727,18.147l2.107,2.109c0.388,0.388-0.615-0.615,0.703,0.703l11.24-11.247l-3.538-3.49	L11.024,17.444C11.397,17.818,11.339,17.759,11.727,18.147z M29.289,4.791l-2.108-2.109c-0.388-0.388-1.017-0.388-1.405,0	l-2.057,2.058l3.462,3.565l2.108-2.109C29.677,5.809,29.677,5.179,29.289,4.791z" style="fill-rule:evenodd;clip-rule:evenodd"/></svg>